<svg xmlns="http://www.w3.org/2000/svg" xmlns:xlink="http://www.w3.org/1999/xlink" width="190" height="116.616" viewBox="0 0 190 116.616">
  <defs>
    <clipPath id="clip-path">
      <rect id="Rect치ngulo_402546" data-name="Rect치ngulo 402546" width="74.5" height="67.986" fill="none"/>
    </clipPath>
  </defs>
  <g id="_2" data-name="2" transform="translate(-1230 -727.384)">
    <rect id="Rect치ngulo_402545" data-name="Rect치ngulo 402545" width="190" height="116.616" rx="8" transform="translate(1230 727.384)" fill="#ffb27e"/>
    <g id="Grupo_1101315" data-name="Grupo 1101315" transform="translate(1287.75 751.699)">
      <g id="Grupo_1101314" data-name="Grupo 1101314" clip-path="url(#clip-path)">
        <path id="Trazado_880030" data-name="Trazado 880030" d="M82.686,187.292V228.1a4.845,4.845,0,0,1-4.845,4.845H14.848A4.845,4.845,0,0,1,10,228.1V187.292a4.845,4.845,0,0,1,4.845-4.845H77.841a4.845,4.845,0,0,1,4.845,4.845" transform="translate(-9.094 -165.871)" fill="#f4bd6c"/>
        <path id="Trazado_880031" data-name="Trazado 880031" d="M275.933,315.181a14.89,14.89,0,1,1-14.886-14.509,14.7,14.7,0,0,1,14.886,14.509" transform="translate(-223.797 -273.355)" fill="#fdfeff"/>
        <path id="Trazado_880032" data-name="Trazado 880032" d="M350.252,386.917v3.293a.881.881,0,0,1-.88.886h-3.764v3.764a.876.876,0,0,1-.88.88h-3.3a.876.876,0,0,1-.88-.88v-3.77h-3.77a.88.88,0,0,1-.88-.88v-3.293a.88.88,0,0,1,.88-.88h3.77v-3.77a.876.876,0,0,1,.88-.88h3.3a.876.876,0,0,1,.88.88v3.77h3.764a.876.876,0,0,1,.88.88" transform="translate(-305.382 -346.738)" fill="#e44856"/>
        <path id="Trazado_880033" data-name="Trazado 880033" d="M100.367,129.414v4.115H91.641v-4.115a.77.77,0,0,1,.77-.77H99.6a.77.77,0,0,1,.77.77" transform="translate(-83.315 -116.956)" fill="#e44856"/>
        <path id="Trazado_880034" data-name="Trazado 880034" d="M641.046,129.414v4.115H632.32v-4.115a.77.77,0,0,1,.77-.77h7.186a.77.77,0,0,1,.77.77" transform="translate(-574.871 -116.956)" fill="#e44856"/>
        <path id="Trazado_880035" data-name="Trazado 880035" d="M325.978,11.938v3.824a1.938,1.938,0,0,1-1.938,1.938H309.258a1.938,1.938,0,0,1-1.938-1.938V11.938A1.938,1.938,0,0,1,309.258,10h14.783a1.938,1.938,0,0,1,1.938,1.938" transform="translate(-279.399 -9.091)" fill="#43bae7"/>
        <path id="Trazado_880036" data-name="Trazado 880036" d="M68.747,15.667H67.083v-3.21A1.68,1.68,0,0,0,65.4,10.779H58.219a1.68,1.68,0,0,0-1.679,1.678v3.21H53.327V8.155A4.164,4.164,0,0,0,49.167,4H47.488V2.846A2.85,2.85,0,0,0,44.642,0H29.859a2.85,2.85,0,0,0-2.846,2.846V4H25.333a4.164,4.164,0,0,0-4.159,4.159v7.513H17.961v-3.21a1.68,1.68,0,0,0-1.679-1.678H9.1a1.68,1.68,0,0,0-1.679,1.678v3.21H5.754A5.76,5.76,0,0,0,0,21.421V62.232a5.76,5.76,0,0,0,5.754,5.753H68.747A5.76,5.76,0,0,0,74.5,62.232V21.421a5.76,5.76,0,0,0-5.753-5.753M58.357,12.6h6.909v3.068H58.357Zm-49.123,0h6.909v3.068H9.234Zm19.6-9.75a1.03,1.03,0,0,1,1.029-1.029H44.642a1.03,1.03,0,0,1,1.029,1.029V6.67A1.03,1.03,0,0,1,44.642,7.7H29.859A1.03,1.03,0,0,1,28.83,6.67ZM22.991,8.155a2.345,2.345,0,0,1,2.342-2.342h1.679V6.67a2.85,2.85,0,0,0,2.846,2.846H44.642A2.85,2.85,0,0,0,47.488,6.67V5.812h1.679A2.345,2.345,0,0,1,51.51,8.155v7.513H22.991ZM72.683,62.232a3.94,3.94,0,0,1-3.936,3.936H5.754a3.941,3.941,0,0,1-3.937-3.936V21.421a3.941,3.941,0,0,1,3.937-3.936H68.747a3.94,3.94,0,0,1,3.936,3.936Z" fill="#040506"/>
        <path id="Trazado_880037" data-name="Trazado 880037" d="M251.958,290.673a15.422,15.422,0,1,0,15.794,15.418,15.627,15.627,0,0,0-15.794-15.418m0,29.018a13.606,13.606,0,1,1,13.977-13.6,13.808,13.808,0,0,1-13.977,13.6" transform="translate(-214.708 -264.264)" fill="#040506"/>
        <path id="Trazado_880038" data-name="Trazado 880038" d="M335.4,376.038h-2.856v-2.861a1.79,1.79,0,0,0-1.788-1.788h-3.3a1.79,1.79,0,0,0-1.789,1.788v2.861h-2.861a1.79,1.79,0,0,0-1.788,1.788v3.293a1.79,1.79,0,0,0,1.788,1.789h2.861v2.861a1.79,1.79,0,0,0,1.789,1.788h3.3a1.79,1.79,0,0,0,1.788-1.788v-2.855H335.4a1.793,1.793,0,0,0,1.788-1.795v-3.293a1.79,1.79,0,0,0-1.788-1.788m-3.764,5.059a.908.908,0,0,0-.909.909l.029,3.735-3.271.029V382a.908.908,0,0,0-.909-.909l-3.741.028-.029-3.264h3.77a.909.909,0,0,0,.909-.909l-.028-3.741,3.27-.029v3.77a.908.908,0,0,0,.909.909h3.735l.029,3.242Z" transform="translate(-291.857 -337.646)" fill="#040506"/>
      </g>
    </g>
  </g>
</svg>
